<svg xmlns="http://www.w3.org/2000/svg" viewBox="0 0 800 1000">
<defs><radialGradient id="bg"><stop stop-color="#f3e8d4"/><stop offset="1" stop-color="#6d786f"/></radialGradient></defs>
<rect width="800" height="1000" fill="url(#bg)"/>
<circle cx="400" cy="250" r="82" fill="#f8e9d5" opacity=".96"/>
<path d="M397 332c-92 28-130 170-122 380 42-84 83-118 122-131z" fill="#f3ede1" opacity=".9"/>
<path d="M403 332c92 28 130 170 122 380-42-84-83-118-122-131z" fill="#f3ede1" opacity=".9"/>
<path d="M400 330c-76 118-82 330 0 492 82-162 76-374 0-492z" fill="#b78674" opacity=".78"/>
<g fill="none" stroke="#d9bd7d" stroke-width="5" opacity=".8"><circle cx="400" cy="250" r="120"/><circle cx="400" cy="250" r="145"/></g>
<g fill="#fff7e8" opacity=".65"><circle cx="155" cy="180" r="6"/><circle cx="650" cy="210" r="7"/><circle cx="220" cy="380" r="5"/><circle cx="590" cy="430" r="5"/><circle cx="690" cy="620" r="4"/></g>
<text x="400" y="930" text-anchor="middle" font-family="Georgia,serif" font-size="34" fill="#fff7e8">Anioł Opiekuńczy</text>
</svg>